<svg width="12" height="14" viewBox="0 0 12 14" fill="none" xmlns="http://www.w3.org/2000/svg">
<path d="M1 3.49984C1 2.39989 1 1.84992 1.29289 1.50821C1.58578 1.1665 2.05719 1.1665 3 1.1665C3.94281 1.1665 4.41422 1.1665 4.70711 1.50821C5 1.84992 5 2.39989 5 3.49984V10.4998C5 11.5998 5 12.1497 4.70711 12.4915C4.41422 12.8332 3.94281 12.8332 3 12.8332C2.05719 12.8332 1.58578 12.8332 1.29289 12.4915C1 12.1497 1 11.5998 1 10.4998V3.49984Z" fill="white"/>
<path d="M7 3.49984C7 2.39989 7 1.84992 7.2929 1.50821C7.5858 1.1665 8.0572 1.1665 9 1.1665C9.9428 1.1665 10.4142 1.1665 10.7071 1.50821C11 1.84992 11 2.39989 11 3.49984V10.4998C11 11.5998 11 12.1497 10.7071 12.4915C10.4142 12.8332 9.9428 12.8332 9 12.8332C8.0572 12.8332 7.5858 12.8332 7.2929 12.4915C7 12.1497 7 11.5998 7 10.4998V3.49984Z" fill="white"/>
</svg>
