<svg width="32" height="32" viewBox="0 0 32 32" fill="none" xmlns="http://www.w3.org/2000/svg">
<path d="M5.51611 31.6881C4.99291 31.6871 4.47898 31.55 4.02484 31.2902C3.00231 30.7106 2.36658 29.5858 2.36658 28.3646V3.65177C2.36658 2.42717 3.00231 1.3057 4.02484 0.726232C4.48978 0.459032 5.01798 0.321566 5.55431 0.328366C6.09044 0.335099 6.61504 0.485766 7.07304 0.764566L28.1942 13.4074C28.6343 13.6834 28.9972 14.0666 29.2486 14.5212C29.5003 14.9759 29.6322 15.4869 29.6322 16.0065C29.6322 16.5261 29.5003 17.0371 29.2486 17.4916C28.9972 17.9463 28.6343 18.3296 28.1942 18.6056L7.06971 31.2518C6.60091 31.5352 6.06398 31.686 5.51611 31.6881Z" fill="white"/>
</svg>
